<svg width="25" height="26" viewBox="0 0 25 26" fill="none" xmlns="http://www.w3.org/2000/svg">
<path d="M17.2828 8.34375C17.2875 8.34375 17.2937 8.34375 17.3 8.34375C17.4633 8.34375 17.6148 8.39453 17.7391 8.48203L17.7367 8.48047C17.8273 8.55938 17.8883 8.67031 17.9031 8.79531V8.79766C17.9187 8.89297 17.9273 9.00234 17.9273 9.11406C17.9273 9.16484 17.9258 9.21484 17.9219 9.26484V9.25781C17.7461 11.1086 16.9836 15.5969 16.5961 17.6688C16.432 18.5461 16.1094 18.8398 15.7969 18.868C15.118 18.9312 14.6023 18.4195 13.9445 17.9883C12.9148 17.3125 12.3328 16.8922 11.3336 16.2336C10.1781 15.4734 10.9273 15.0539 11.5852 14.3711C11.7578 14.1914 14.7508 11.4688 14.8094 11.2219C14.8125 11.207 14.8141 11.1906 14.8141 11.1734C14.8141 11.1125 14.7914 11.057 14.7547 11.0148C14.7141 10.9883 14.6633 10.9734 14.6102 10.9734C14.575 10.9734 14.5414 10.9805 14.5102 10.9922L14.5117 10.9914C14.4086 11.0148 12.7638 12.1018 9.57734 14.2523C9.22969 14.5266 8.79063 14.7 8.3125 14.7203H8.30781C7.63047 14.6383 7.01562 14.4875 6.43203 14.2727L6.48984 14.2914C5.75703 14.0523 5.175 13.9266 5.225 13.5219C5.25156 13.3115 5.54167 13.0961 6.09531 12.8758C9.50573 11.3898 11.7799 10.4104 12.918 9.9375C14.1734 9.27109 15.6289 8.72266 17.1594 8.36719L17.282 8.34297L17.2828 8.34375ZM12.4453 1.30078C5.95938 1.31641 0.707031 6.57812 0.707031 13.0664C0.707031 19.5641 5.97422 24.832 12.4727 24.832C18.9711 24.832 24.2383 19.5648 24.2383 13.0664C24.2383 6.57812 18.9859 1.31641 12.5016 1.30078H12.5C12.4818 1.30078 12.4635 1.30078 12.4453 1.30078Z" fill="url(#paint0_linear_218_96)"/>
<defs>
<linearGradient id="paint0_linear_218_96" x1="12.4727" y1="1.30078" x2="12.4727" y2="24.832" gradientUnits="userSpaceOnUse">
<stop stop-color="#6384FA"/>
<stop offset="1" stop-color="#BD8DFF"/>
</linearGradient>
</defs>
</svg>
