<svg width="25" height="26" viewBox="0 0 25 26" fill="none" xmlns="http://www.w3.org/2000/svg">
<g clip-path="url(#clip0_218_98)">
<path d="M13.5417 4.66669C12.9664 4.66669 12.5 5.13306 12.5 5.70835C12.5 6.28365 12.9664 6.75002 13.5417 6.75002C14.8675 6.75002 15.8914 7.18741 16.5811 7.87722C17.2709 8.56703 17.7083 9.59091 17.7083 10.9167C17.7083 11.492 18.1747 11.9584 18.75 11.9584C19.3253 11.9584 19.7917 11.492 19.7917 10.9167C19.7917 9.11747 19.1874 7.53718 18.0543 6.40407C16.9211 5.27097 15.3408 4.66669 13.5417 4.66669Z" fill="url(#paint0_linear_218_98)"/>
<path d="M5.22291 8.83972C5.34194 7.89833 6.56538 6.6189 7.53633 6.76086L7.53478 6.75931C8.34636 6.91353 9.01267 8.13505 9.4518 8.94006C9.52393 9.07231 9.58994 9.19332 9.64946 9.29651C9.94834 9.8271 9.75427 10.3647 9.47557 10.5915C9.44334 10.6175 9.40955 10.6443 9.37479 10.6719C9.00391 10.9664 8.52202 11.3489 8.63482 11.7327C8.85416 12.4792 11.4583 15.0833 12.7392 15.8236C13.1313 16.0503 13.4362 15.6101 13.6974 15.2331C13.7591 15.1441 13.8183 15.0585 13.8757 14.9861C14.0938 14.6949 14.6319 14.5208 15.1612 14.8083C15.9519 15.2688 16.6967 15.8039 17.3854 16.4062C17.7294 16.6938 17.8101 17.1186 17.5718 17.5677C17.152 18.3586 15.9378 19.4017 15.0565 19.1897C13.5171 18.8196 7.29166 16.4062 5.29201 9.41459C5.1873 9.10663 5.20463 8.977 5.21966 8.86449L5.22291 8.83972Z" fill="url(#paint1_linear_218_98)"/>
<path d="M13.5417 7.79169C12.9664 7.79169 12.5 8.25806 12.5 8.83335C12.5 9.40865 12.9664 9.87502 13.5417 9.87502C13.7237 9.87502 13.9929 9.97653 14.2374 10.221C14.4818 10.4654 14.5833 10.7346 14.5833 10.9167C14.5833 11.492 15.0497 11.9584 15.625 11.9584C16.2003 11.9584 16.6667 11.492 16.6667 10.9167C16.6667 10.0571 16.2474 9.28465 15.7105 8.74782C15.1737 8.21101 14.4013 7.79169 13.5417 7.79169Z" fill="url(#paint2_linear_218_98)"/>
<path fill-rule="evenodd" clip-rule="evenodd" d="M7.83065 25.3241C7.86029 25.3405 7.89071 25.3554 7.9218 25.3687C8.48711 25.6118 9.18495 25.069 10.5806 23.9835L11.9792 22.8958C14.7796 22.9885 17.2021 22.621 19.075 21.9657C21.1695 21.2328 22.8163 19.586 23.5492 17.4915C24.5592 14.6052 24.5592 9.31125 23.5492 6.42491C22.8163 4.33041 21.1695 2.68362 19.075 1.95071C15.7399 0.783728 9.19791 0.805498 5.92507 1.95071C3.83056 2.68362 2.18378 4.33041 1.45087 6.42491C0.440896 9.31125 0.440896 14.6052 1.45087 17.4915C2.18378 19.586 3.83056 21.2328 5.92507 21.9657C6.33596 22.1094 6.79554 22.2672 7.29167 22.375C7.29167 24.1431 7.29167 25.0272 7.83065 25.3241ZM9.37501 22.2819V21.1155C9.37501 20.8705 9.20417 20.6587 8.96456 20.6075C8.17091 20.4378 7.38205 20.2683 6.61315 19.9992C5.11707 19.4758 3.9408 18.2994 3.4173 16.8034C3.0195 15.6665 2.77672 13.8805 2.77672 11.9582C2.77672 10.0359 3.0195 8.24984 3.4173 7.11299C3.9408 5.61692 5.11707 4.44064 6.61315 3.91714C7.9336 3.4551 10.122 3.16957 12.479 3.16697C14.8356 3.16437 17.0376 3.445 18.3869 3.91714C19.8829 4.44064 21.0593 5.61692 21.5827 7.11299C21.9805 8.24984 22.2233 10.0359 22.2233 11.9582C22.2233 13.8805 21.9805 15.6665 21.5827 16.8034C21.0593 18.2994 19.8829 19.4758 18.3869 19.9992C16.1664 20.7762 13.8115 20.8635 11.4832 20.7946C11.3616 20.791 11.2423 20.8297 11.1463 20.9043L9.37501 22.2819Z" fill="url(#paint3_linear_218_98)"/>
</g>
<defs>
<linearGradient id="paint0_linear_218_98" x1="16.1458" y1="4.66669" x2="16.1458" y2="11.9584" gradientUnits="userSpaceOnUse">
<stop stop-color="#6384FA"/>
<stop offset="1" stop-color="#BD8DFF"/>
</linearGradient>
<linearGradient id="paint1_linear_218_98" x1="11.4583" y1="6.75" x2="11.4583" y2="19.2175" gradientUnits="userSpaceOnUse">
<stop stop-color="#6384FA"/>
<stop offset="1" stop-color="#BD8DFF"/>
</linearGradient>
<linearGradient id="paint2_linear_218_98" x1="14.5833" y1="7.79169" x2="14.5833" y2="11.9584" gradientUnits="userSpaceOnUse">
<stop stop-color="#6384FA"/>
<stop offset="1" stop-color="#BD8DFF"/>
</linearGradient>
<linearGradient id="paint3_linear_218_98" x1="12.5" y1="1.08362" x2="12.5" y2="25.4261" gradientUnits="userSpaceOnUse">
<stop stop-color="#6384FA"/>
<stop offset="1" stop-color="#BD8DFF"/>
</linearGradient>
<clipPath id="clip0_218_98">
<rect width="25" height="25" fill="white" transform="translate(0 0.5)"/>
</clipPath>
</defs>
</svg>
