<svg width="25" height="26" viewBox="0 0 25 26" fill="none" xmlns="http://www.w3.org/2000/svg">
<path d="M20.7625 4.68983C18.6609 2.58827 15.7578 1.28827 12.5508 1.28827C6.1375 1.28827 0.9375 6.48749 0.9375 12.9016C0.9375 15.0359 1.51328 17.0351 2.51719 18.7539L2.4875 18.6992L0.839844 24.7164L6.99531 23.1015C8.59766 23.9914 10.5094 24.5148 12.5437 24.5148H12.5484C18.9617 24.5125 24.1594 19.3125 24.1594 12.8992C24.1594 9.69374 22.8609 6.79218 20.7617 4.69061L20.7625 4.68983ZM12.5484 22.5531H12.5445C10.7328 22.5531 9.03672 22.0531 7.58906 21.1836L7.63281 21.2078L7.28047 20.9992L3.62812 21.9578L4.60234 18.3961L4.37266 18.0312C3.44688 16.5766 2.89687 14.8039 2.89687 12.9023C2.89687 7.57264 7.21797 3.25155 12.5477 3.25155C17.8773 3.25155 22.1984 7.57264 22.1984 12.9023C22.1984 18.232 17.8789 22.5531 12.5484 22.5531ZM17.8422 15.3258C17.5523 15.1805 16.1258 14.4797 15.8602 14.382C15.5938 14.2851 15.4 14.2375 15.2063 14.5281C15.0141 14.818 14.4578 15.4711 14.2883 15.6648C14.1195 15.8594 13.9492 15.8828 13.6594 15.7383C12.7609 15.3742 11.9891 14.889 11.318 14.2914L11.3258 14.2984C10.7016 13.7203 10.1664 13.0586 9.73438 12.3289L9.7125 12.2883C9.54375 11.9984 9.69453 11.8414 9.83906 11.6969C9.96953 11.5672 10.1297 11.3578 10.2742 11.1891C10.3883 11.0492 10.4859 10.8891 10.5602 10.7172L10.5648 10.7039C10.5984 10.6359 10.618 10.557 10.618 10.4726C10.618 10.3703 10.5891 10.275 10.5391 10.1937L10.5406 10.1961C10.4672 10.0508 9.8875 8.62264 9.64609 8.04139C9.41016 7.47577 9.17031 7.55311 8.99297 7.54374C8.82422 7.53593 8.63047 7.53436 8.43672 7.53436C8.12813 7.54218 7.85391 7.68124 7.66484 7.89608L7.66406 7.89764C7.0375 8.49218 6.64844 9.33046 6.64844 10.2594C6.64844 10.2797 6.64844 10.3008 6.64922 10.3211V10.318C6.75156 11.4641 7.18125 12.493 7.84219 13.3312L7.83281 13.3195C9.08594 15.1781 10.7563 16.6648 12.7164 17.6664L12.7898 17.7C13.218 17.8937 13.7664 18.1008 14.3273 18.2781L14.4438 18.3101C14.7891 18.4195 15.1867 18.4828 15.5992 18.4828C15.8359 18.4828 16.0688 18.4617 16.2937 18.4219L16.2695 18.425C17.1047 18.2508 17.7977 17.7469 18.2203 17.0586L18.2273 17.0453C18.3562 16.7594 18.4312 16.4258 18.4312 16.075C18.4312 15.9305 18.4187 15.789 18.3945 15.6515L18.3969 15.6664C18.325 15.5453 18.1313 15.4734 17.8406 15.3273L17.8422 15.3258Z" fill="url(#paint0_linear_218_94)"/>
<defs>
<linearGradient id="paint0_linear_218_94" x1="12.4996" y1="1.28827" x2="12.4996" y2="24.7164" gradientUnits="userSpaceOnUse">
<stop stop-color="#6384FA"/>
<stop offset="1" stop-color="#BD8DFF"/>
</linearGradient>
</defs>
</svg>
